<?xml version="1.0" encoding="utf-8"?>
<!-- Generator: Adobe Illustrator 20.0.0, SVG Export Plug-In . SVG Version: 6.00 Build 0)  -->
<svg version="1.1" id="Capa_1" xmlns="http://www.w3.org/2000/svg" xmlns:xlink="http://www.w3.org/1999/xlink" x="0px" y="0px"
	 viewBox="0 0 510 510" style="enable-background:new 0 0 510 510;" xml:space="preserve">
<g>
	<g id="post-linkedin">
		<path d="M478.3,182.9H224.7c-17.4,0-31.7,14.7-31.7,32.7v261.7c0,18,14.3,32.7,31.7,32.7h253.6c17.4,0,31.7-14.7,31.7-32.7V215.6
			C510,197.6,495.7,182.9,478.3,182.9z M288.1,460.9h-47.6V313.8h47.6V460.9z M264.3,286c-15.9,0-28.5-13.1-28.5-29.4
			s12.7-29.4,28.5-29.4c15.8,0,28.5,13.1,28.5,29.4S280.2,286,264.3,286z M462.5,460.9h-47.6v-86.7c0-13.1-11.1-24.5-23.8-24.5
			s-23.8,11.4-23.8,24.5v86.7h-47.6V313.8h47.6v19.6c7.9-13.1,25.4-22.9,39.6-22.9c30.1,0,55.5,26.2,55.5,57.2V460.9z"/>
	</g>
</g>
</svg>
